<svg width="605" height="236" viewBox="0 0 605 236" xmlns="http://www.w3.org/2000/svg"><title>Clouds</title><path d="M39.567 250.278a34.448 34.448 0 0 1-10.071-7.59C26.39 245.953 21.94 248 17 248c-9.389 0-17-7.387-17-16.5S7.611 215 17 215c1.545 0 3.041.2 4.464.575C24.169 199.93 38.378 188 55.5 188c5.065 0 9.874 1.044 14.207 2.919C74.677 175.92 89.94 165 108 165c2.397 0 4.744.192 7.025.561A22.383 22.383 0 0 1 115 164.5c0-12.426 10.297-22.5 23-22.5 3.594 0 6.996.807 10.027 2.245A56.597 56.597 0 0 1 148 142.5c0-29.547 23.057-53.5 51.5-53.5 24.348 0 44.75 17.553 50.12 41.142C254.64 127.5 260.39 126 266.5 126c17.918 0 32.735 12.9 35.154 29.666C306.18 153.333 311.417 152 317 152c2.811 0 5.535.338 8.124.971l43.101-71.088-33.9 28.6L397.46.175 376.6 107.591l29.35-76.374-9.393 125.593c6.865-3.056 14.88-4.81 23.442-4.81 8.633 0 16.711 1.784 23.614 4.887C451.997 148.334 463.854 143 477 143c25.405 0 46 19.923 46 44.5 0 2.817-.27 5.573-.788 8.244A20.429 20.429 0 0 1 530.5 194c10.89 0 19.795 8.49 20.46 19.211 2.37-4.323 6.651-7.211 11.54-7.211 7.456 0 13.5 6.716 13.5 15a16.26 16.26 0 0 1-1.639 7.169c2.887-.747 6.164-1.169 9.639-1.169 11.598 0 21 4.701 21 10.5s-9.402 10.5-21 10.5c-1.222 0-2.42-.052-3.584-.152l1.463 25.711-541.778-1.182-.534-22.1z" fill="#FFF" fill-rule="evenodd"/></svg>