<svg width="605" height="222" viewBox="0 0 605 222" fill="none" xmlns="http://www.w3.org/2000/svg">
<path d="M376.601 107.417L405.95 31.043L396.558 156.638C403.423 153.582 411.438 151.826 420 151.826C428.634 151.826 436.711 153.612 443.614 156.715C451.997 148.161 463.854 142.826 477 142.826C502.405 142.826 523 162.749 523 187.326C523 190.144 522.725 192.9 522.207 195.573C524.743 194.45 527.548 193.826 530.5 193.826C541.39 193.826 550.294 202.317 550.958 213.039C553.327 208.714 557.61 205.826 562.5 205.826C569.956 205.826 576 212.542 576 220.826C576 223.424 575.405 225.867 574.359 227.998C577.247 227.251 580.524 226.826 584 226.826C595.598 226.826 605 231.527 605 237.326C605 243.125 595.598 247.826 584 247.826C582.778 247.826 581.58 247.77 580.415 247.67L581.879 273.386L40.1016 272.203L39.5664 250.101C35.7297 248.186 32.3166 245.603 29.4961 242.511C26.3899 245.778 21.9418 247.826 17 247.826C7.61124 247.826 0.000135949 240.439 0 231.326C0 222.213 7.61116 214.826 17 214.826C18.5456 214.826 20.0426 215.027 21.4658 215.402C24.1704 199.758 38.3775 187.826 55.5 187.826C60.565 187.826 65.3752 188.87 69.708 190.745C74.6787 175.747 89.9411 164.826 108 164.826C110.397 164.826 112.745 165.019 115.026 165.388C115.01 165.036 115 164.682 115 164.326C115 151.9 125.297 141.826 138 141.826C141.595 141.826 144.997 142.634 148.027 144.072C148.009 143.493 148 142.91 148 142.326C148 112.779 171.057 88.8262 199.5 88.8262C223.848 88.8262 244.249 106.379 249.618 129.969C254.639 127.326 260.389 125.826 266.5 125.826C284.418 125.826 299.233 138.728 301.651 155.493C306.177 153.159 311.416 151.826 317 151.826C319.81 151.826 322.533 152.165 325.122 152.798L368.225 81.709L334.325 110.31L397.461 0L376.601 107.417Z" fill="#E4EAEF"/>
</svg>
