<svg width="1440" height="1024" viewBox="0 0 1440 1024" xmlns="http://www.w3.org/2000/svg" xmlns:xlink="http://www.w3.org/1999/xlink" style="background:#2a2951"><title>Desktop HD</title><defs><path d="M120.45 344.074l-87.753.865C-62.217 110.424 79.797.357 79.797.357s131.047 123.057 40.653 343.717z" id="a"/><path d="M120.45 344.074l-87.753.865C-62.217 110.424 79.797.357 79.797.357s131.047 123.057 40.653 343.717z" id="b"/><ellipse id="d" cx="13.452" cy="13.082" rx="13.452" ry="13.082"/><ellipse id="e" cx="24.213" cy="23.547" rx="24.213" ry="23.547"/><text id="g" font-family="Raleway-Regular, Raleway" font-size="48"><tspan x="79" y="576" fill="#FFF">i&amp;apos;m a </tspan> <tspan x="193.672" y="576" fill="#74E8DB">software developer</tspan> <tspan x="623.08" y="576" fill="#FFF"> </tspan> <tspan x="79" y="632" fill="#FFF">from bremen, germany</tspan></text><filter x="-50%" y="-50%" width="200%" height="200%" filterUnits="objectBoundingBox" id="f"><feOffset dx="4" dy="4" in="SourceAlpha" result="shadowOffsetOuter1"/><feColorMatrix values="0 0 0 0 0 0 0 0 0 0 0 0 0 0 0 0 0 0 0.5 0" in="shadowOffsetOuter1"/></filter><text id="i" font-family="Bazar" font-size="100" font-weight="400" fill="#FFE000"><tspan x="74.95" y="494">RAPHAEL HANNEKEN</tspan></text><filter x="-50%" y="-50%" width="200%" height="200%" filterUnits="objectBoundingBox" id="h"><feOffset dx="6" dy="6" in="SourceAlpha" result="shadowOffsetOuter1"/><feColorMatrix values="0 0 0 0 0 0 0 0 0 0 0 0 0 0 0 0 0 0 0.5 0" in="shadowOffsetOuter1"/></filter><text id="k" font-family="Raleway-Regular, Raleway" font-size="48"><tspan x="78" y="386" fill="#FA5F57">hi there!</tspan> <tspan x="256.8" y="386" fill="#FFF"> my name is</tspan></text><filter x="-50%" y="-50%" width="200%" height="200%" filterUnits="objectBoundingBox" id="j"><feOffset dx="4" dy="4" in="SourceAlpha" result="shadowOffsetOuter1"/><feColorMatrix values="0 0 0 0 0 0 0 0 0 0 0 0 0 0 0 0 0 0 0.5 0" in="shadowOffsetOuter1"/></filter></defs><g fill="none" fill-rule="evenodd"><circle fill="#FFF" cx="812" cy="197" r="151"/><path d="M700.567 1038.278a34.448 34.448 0 0 1-10.071-7.59C687.39 1033.953 682.94 1036 678 1036c-9.389 0-17-7.387-17-16.5s7.611-16.5 17-16.5c1.545 0 3.041.2 4.464.575C685.169 987.93 699.378 976 716.5 976c5.065 0 9.874 1.044 14.207 2.919C735.677 963.92 750.94 953 769 953c2.397 0 4.744.192 7.025.561A22.383 22.383 0 0 1 776 952.5c0-12.426 10.297-22.5 23-22.5 3.594 0 6.996.807 10.027 2.245A56.597 56.597 0 0 1 809 930.5c0-29.547 23.057-53.5 51.5-53.5 24.348 0 44.75 17.553 50.12 41.142C915.64 915.5 921.39 914 927.5 914c17.918 0 32.735 12.9 35.154 29.666C967.18 941.333 972.417 940 978 940c2.811 0 5.535.338 8.124.971l43.101-71.088-33.9 28.6 63.136-110.309-20.86 107.417 29.35-76.374-9.393 125.593c6.865-3.056 14.88-4.81 23.442-4.81 8.633 0 16.711 1.784 23.614 4.887 8.383-8.553 20.24-13.887 33.386-13.887 25.405 0 46 19.923 46 44.5 0 2.817-.27 5.573-.788 8.244A20.429 20.429 0 0 1 1191.5 982c10.89 0 19.795 8.49 20.46 19.211 2.37-4.323 6.651-7.211 11.54-7.211 7.456 0 13.5 6.716 13.5 15a16.26 16.26 0 0 1-1.639 7.169c2.887-.747 6.164-1.169 9.639-1.169 11.598 0 21 4.701 21 10.5s-9.402 10.5-21 10.5c-1.222 0-2.42-.052-3.584-.152l1.463 25.711-541.778-1.182-.534-22.1z" fill="#FFF"/><g transform="rotate(15 -930.072 4323.613)"><use stroke="#0E0E29" stroke-width="13.86" fill="#F5F5FA" xlink:href="#a"/><mask id="c" fill="#fff"><use xlink:href="#b"/></mask><use fill="#6DC7BD" xlink:href="#b"/><path d="M54.476 345.167c39.449-17.617 57.669-119.055 57.669-119.055l12.866 2.522C153.585 119.73 74.156-9.571 74.156-9.571S176.53 89.761 152.24 259.26c2.966 2.886-15.353-6.93-15.353-6.93l-14.602 96.13s-59.799 26.603-67.81-3.292z" fill-opacity=".89" fill="#FAF6E1" mask="url(#c)"/></g><path d="M1155.603 672.687c68.8 44.733 23.672 132.954 14.129 150.334-6.882-49.384-49.822-85.33-49.822-85.33l35.693-65.004z" stroke="#0E0E29" stroke-width="8.316" fill="#6DC7BD"/><path d="M1171.123 799.562c.838-2.856-.809-37.974-8.933-55.87l8.237 2.542s6.2-38.331-18.806-48.345l7.781-13.527s49.068 28.973 11.721 115.2z" fill-opacity=".89" fill="#FAF6E1"/><path d="M1033.929 639.931c-81.95 4.34-86.978 103.305-87.403 123.128 30.652-39.327 85.812-48.986 85.812-48.986l1.59-74.142z" stroke="#0D0D29" stroke-width="8.316" fill="#6DC7BD"/><path d="M957.164 742.226c.257-3.332 20.01-28.07 35.374-40.328l-12.305-1.391s17.82-38.226 44.647-35.796l-.031-16.773s-60.02.239-67.685 94.288z" fill-opacity=".89" fill="#FAF6E1"/><path d="M1094.326 664.24s-31.834 32.476-25.992 93.256c0 0 30.374-32.653 25.992-93.256z" stroke="#0E0E29" stroke-width="4.158" fill="#0E0E29"/><g transform="rotate(15 -965.66 4312.658)" fill="#362D2C"><ellipse cx="14.478" cy="227.922" rx="4.035" ry="3.925"/><ellipse cx="79.253" cy="4.755" rx="4.035" ry="3.925"/><ellipse cx="16.358" cy="312.002" rx="4.035" ry="3.925"/><ellipse cx="4.453" cy="267.569" rx="4.035" ry="3.925"/><ellipse cx="140.62" cy="312.769" rx="4.035" ry="3.925"/><ellipse cx="151.684" cy="267.167" rx="4.035" ry="3.925"/><ellipse cx="61.558" cy="328.652" rx="2.69" ry="2.616"/><ellipse cx="96.533" cy="328.652" rx="2.69" ry="2.616"/></g><g transform="rotate(15 -1611.364 4486.282)"><use stroke="#362D2C" stroke-width="1.386" fill="#FFE000" xlink:href="#d"/></g><g transform="rotate(15 -1398.66 4483.101)"><use stroke="#362D2C" stroke-width="1.386" fill="#FFE000" xlink:href="#e"/></g><g fill="#FFF"><use filter="url(#f)" xlink:href="#g"/><use xlink:href="#g"/></g><g fill="#FFE000"><use filter="url(#h)" xlink:href="#i"/><use xlink:href="#i"/></g><g fill="#FA5F57"><use filter="url(#j)" xlink:href="#k"/><use xlink:href="#k"/></g></g></svg>