<svg width="260" height="436" viewBox="0 0 260 436" xmlns="http://www.w3.org/2000/svg" xmlns:xlink="http://www.w3.org/1999/xlink"><title>Major Tom</title><defs><path d="M120.45 344.074l-87.753.865C-62.217 110.424 79.797.357 79.797.357s131.047 123.057 40.653 343.717z" id="a"/><path d="M120.45 344.074l-87.753.865C-62.217 110.424 79.797.357 79.797.357s131.047 123.057 40.653 343.717z" id="b"/><ellipse id="d" cx="13.452" cy="13.082" rx="13.452" ry="13.082"/><ellipse id="e" cx="24.213" cy="23.547" rx="24.213" ry="23.547"/></defs><g fill="none" fill-rule="evenodd"><g transform="rotate(15 118.078 546.012)"><use stroke="#0E0E29" stroke-width="13.86" fill="#F5F5FA" xlink:href="#a"/><mask id="c" fill="#fff"><use xlink:href="#b"/></mask><use fill="#6DC7BD" xlink:href="#b"/><path d="M54.476 345.167c39.449-17.617 57.669-119.055 57.669-119.055l12.866 2.522C153.585 119.73 74.156-9.571 74.156-9.571S176.53 89.761 152.24 259.26c2.966 2.886-15.353-6.93-15.353-6.93l-14.602 96.13s-59.799 26.603-67.81-3.292z" fill-opacity=".89" fill="#FAF6E1" mask="url(#c)"/></g><path d="M213.603 272.687c68.8 44.733 23.672 132.954 14.129 150.334-6.882-49.384-49.822-85.33-49.822-85.33l35.693-65.004z" stroke="#0E0E29" stroke-width="8.316" fill="#6DC7BD"/><path d="M229.123 399.562c.838-2.856-.809-37.974-8.933-55.87l8.237 2.542s6.2-38.331-18.806-48.345l7.781-13.527s49.068 28.973 11.721 115.2z" fill-opacity=".89" fill="#FAF6E1"/><path d="M91.929 239.931C9.979 244.271 4.95 343.236 4.526 363.059c30.652-39.327 85.812-48.986 85.812-48.986l1.59-74.142z" stroke="#0D0D29" stroke-width="8.316" fill="#6DC7BD"/><path d="M15.164 342.226c.257-3.332 20.01-28.07 35.374-40.328l-12.305-1.391s17.82-38.226 44.647-35.796l-.031-16.773s-60.02.239-67.685 94.288z" fill-opacity=".89" fill="#FAF6E1"/><path d="M152.326 264.24s-31.834 32.476-25.992 93.256c0 0 30.374-32.653 25.992-93.256z" stroke="#0E0E29" stroke-width="4.158" fill="#0E0E29"/><g transform="rotate(15 82.49 535.058)" fill="#362D2C"><ellipse cx="14.478" cy="227.922" rx="4.035" ry="3.925"/><ellipse cx="79.253" cy="4.755" rx="4.035" ry="3.925"/><ellipse cx="16.358" cy="312.002" rx="4.035" ry="3.925"/><ellipse cx="4.453" cy="267.569" rx="4.035" ry="3.925"/><ellipse cx="140.62" cy="312.769" rx="4.035" ry="3.925"/><ellipse cx="151.684" cy="267.167" rx="4.035" ry="3.925"/><ellipse cx="61.558" cy="328.652" rx="2.69" ry="2.616"/><ellipse cx="96.533" cy="328.652" rx="2.69" ry="2.616"/></g><g transform="rotate(15 -563.214 708.681)"><use stroke="#362D2C" stroke-width="1.386" fill="#FFE000" xlink:href="#d"/></g><g transform="rotate(15 -350.51 705.5)"><use stroke="#362D2C" stroke-width="1.386" fill="#FFE000" xlink:href="#e"/></g></g></svg>