<svg width="336" height="447" viewBox="0 0 336 447" fill="none" xmlns="http://www.w3.org/2000/svg">
<path d="M295.701 426.301C307.068 408.313 312.494 392.363 314.184 378.495C316.219 361.801 312.88 347.81 307.536 336.528C302.17 325.199 294.754 316.554 288.638 310.724C286.184 308.385 283.954 306.516 282.176 305.122L252.668 354.741C253.791 355.702 255.147 356.898 256.673 358.32C261.087 362.435 266.967 368.462 272.865 376.14C282.471 388.642 292.306 405.767 295.701 426.301Z" fill="#61BAB0" stroke="#0B0B3B" stroke-width="10"/>
<path d="M36.4051 352.867C35.8292 331.596 39.3188 315.113 44.9546 302.329C51.7389 286.941 61.7593 276.623 72.1198 269.657C82.5227 262.663 93.3156 259.023 101.552 257.139C104.857 256.383 107.729 255.916 109.969 255.626L109.969 313.357C108.512 313.609 106.736 313.943 104.697 314.386C98.8006 315.667 90.666 317.842 81.6722 321.425C67.0256 327.261 49.819 336.953 36.4051 352.867Z" fill="#61BAB0" stroke="#0B0B3B" stroke-width="10"/>
<mask id="mask0_4_86" style="mask-type:alpha" maskUnits="userSpaceOnUse" x="41" y="261" width="64" height="80">
<path d="M41.5599 340.285C42.3645 325.597 45.357 313.812 49.5299 304.347C55.8889 289.923 65.2387 280.308 74.9095 273.806C84.6653 267.247 94.8418 263.802 102.667 262.012C103.462 261.83 104.231 261.669 104.968 261.521L104.967 309.218C104.537 309.307 104.092 309.401 103.636 309.5C97.5323 310.826 89.1242 313.073 79.8212 316.78C67.7723 321.581 53.8629 328.98 41.5599 340.285Z" fill="#FF0000"/>
</mask>
<g mask="url(#mask0_4_86)">
<path d="M40.8168 344.099C0.73185 235.7 91.1752 208.53 91.1752 208.53L108.171 273.855C108.171 273.855 55.8168 273.855 40.8168 344.099Z" fill="#E4EAEF" fill-opacity="0.5"/>
</g>
<path d="M273.493 9.15402C273.875 9.59436 306.534 47.3664 318.916 111.033C331.353 174.981 323.192 264.393 242.783 367.458L240.529 370.347L236.994 369.38L115.469 336.098L111.934 335.131L111.466 331.496C94.7819 201.792 133.352 120.686 176.656 72.0036C198.233 47.746 220.866 31.6707 238.125 21.6501C246.758 16.6379 254.059 13.1331 259.233 10.8708C261.82 9.73949 263.877 8.91793 265.304 8.37375C266.018 8.10164 266.575 7.89923 266.962 7.76144C267.155 7.6926 267.306 7.64009 267.413 7.60324C267.466 7.58487 267.508 7.56991 267.54 7.5593C267.555 7.55399 267.569 7.54998 267.579 7.5466C267.584 7.54494 267.589 7.54258 267.591 7.54172C267.596 7.54025 267.6 7.53949 269.011 11.778L267.6 7.53879L271.086 6.37863L273.493 9.15402Z" fill="#61BAB0" stroke="#0B0B3B" stroke-width="11"/>
<mask id="mask1_4_86" style="mask-type:alpha" maskUnits="userSpaceOnUse" x="112" y="12" width="207" height="353">
<path d="M269.338 12.7575C269.438 12.8724 397.347 160.405 238.447 364.075L116.922 330.794C83.9507 74.483 269.338 12.7575 269.338 12.7575Z" fill="#FF0000"/>
</mask>
<g mask="url(#mask1_4_86)">
<path d="M141.4 346.933C110.226 120.91 240.554 28.0828 294.015 -1.10593L133.581 18.2107L34.5066 103.967L3.94666 273.544L49.6921 326.691L123.813 463.957L141.4 346.933Z" fill="#E4EAEF" fill-opacity="0.5"/>
</g>
<path fill-rule="evenodd" clip-rule="evenodd" d="M202.029 273.913C202.029 273.913 156.734 310.11 166.532 385.336C166.532 385.336 209.713 348.754 202.029 273.913Z" fill="#0B0B3B"/>
<circle cx="223.817" cy="206.599" r="15" fill="#F1C33B" stroke="#0B0B3B" stroke-width="5"/>
<circle cx="242.317" cy="151.099" r="27.5" fill="#F1C33B" stroke="#0B0B3B" stroke-width="7"/>
</svg>
