<svg width="777" height="105" viewBox="0 0 777 105" xmlns="http://www.w3.org/2000/svg" xmlns:xlink="http://www.w3.org/1999/xlink"><title>RAPHAEL HANNEKEN</title><desc>raphaelhanneken.com</desc><defs><path d="M20.45 88.4v55.8h6.7c1.867 0 3.45-.767 4.75-2.3 1.3-1.533 1.95-3.333 1.95-5.4V96.1c0-2.133-.65-3.95-1.95-5.45-1.3-1.5-2.883-2.25-4.75-2.25h-6.7zm7.4-13.5c5.4.2 10 2.35 13.8 6.45 3.8 4.1 5.7 9.017 5.7 14.75v40.4c0 6-2.1 11.1-6.3 15.3l6.3 19.3h-14.2l-4.3-13.6c-.533.067-1.067.1-1.6.1h-6.8v13.5H6.95V74.9h20.9zm58.4 69.3v-50c0-2.133-.65-3.95-1.95-5.45-1.3-1.5-2.883-2.25-4.75-2.25s-3.45.75-4.75 2.25c-1.3 1.5-1.95 3.317-1.95 5.45v50h13.4zm-26.9-50c0-5.867 1.967-10.867 5.9-15 3.933-4.133 8.7-6.2 14.3-6.2 5.6 0 10.367 2.067 14.3 6.2s5.9 9.133 5.9 15v76.9h-13.5v-13.5h-13.4v13.5h-13.5V94.2zm65.8-5.8v55.8h6.7c1.867 0 3.45-.767 4.75-2.3 1.3-1.533 1.95-3.333 1.95-5.4V96.1c0-2.133-.65-3.95-1.95-5.45-1.3-1.5-2.883-2.25-4.75-2.25h-6.7zm7.4-13.5c5.4.2 10 2.35 13.8 6.45 3.8 4.1 5.7 9.017 5.7 14.75v40.4c0 5.8-1.967 10.767-5.9 14.9-3.933 4.133-8.7 6.2-14.3 6.2h-6.7v13.5h-13.5V74.9h20.9zm58.4 0h13.5v96.2h-13.5v-55.8h-13.4v55.8h-13.5V74.9h13.5v26.9h13.4V74.9zm52.4 69.3v-50c0-2.133-.65-3.95-1.95-5.45-1.3-1.5-2.883-2.25-4.75-2.25s-3.45.75-4.75 2.25c-1.3 1.5-1.95 3.317-1.95 5.45v50h13.4zm-26.9-50c0-5.867 1.967-10.867 5.9-15 3.933-4.133 8.7-6.2 14.3-6.2 5.6 0 10.367 2.067 14.3 6.2s5.9 9.133 5.9 15v76.9h-13.5v-13.5h-13.4v13.5h-13.5V94.2zm86 63.4v13.5h-33.7V74.9h27v13.5h-13.5v13.4h20.2v13.5h-20.2v42.3h20.2zm12-82.7h13.5v82.7h20.2v13.5h-33.7V74.9zm94.8 0h13.5v96.2h-13.5v-55.8h-13.4v55.8h-13.5V74.9h13.5v26.9h13.4V74.9zm52.4 69.3v-50c0-2.133-.65-3.95-1.95-5.45-1.3-1.5-2.883-2.25-4.75-2.25s-3.45.75-4.75 2.25c-1.3 1.5-1.95 3.317-1.95 5.45v50h13.4zm-26.9-50c0-5.867 1.967-10.867 5.9-15 3.933-4.133 8.7-6.2 14.3-6.2 5.6 0 10.367 2.067 14.3 6.2s5.9 9.133 5.9 15v76.9h-13.5v-13.5h-13.4v13.5h-13.5V94.2zm52.3-21.2l26.9 37.1V74.9h13.5v96.2h-13.5V133l-13.4-18.6v56.7h-13.5V73zm52.4 0l26.9 37.1V74.9h13.5v96.2h-13.5V133l-13.4-18.6v56.7h-13.5V73zm86.1 84.6v13.5h-33.7V74.9h27v13.5h-13.5v13.4h20.2v13.5h-20.2v42.3h20.2zm52.4-69.2v48.1c0 6-2.1 11.1-6.3 15.3l6.3 19.3h-14.2l-4.3-13.5h-8.4v13.5h-13.5V74.9h13.5V144.2h6.7c1.867 0 3.45-.767 4.75-2.3 1.3-1.533 1.95-3.333 1.95-5.4V88.4h13.5zm45.7 69.2v13.5h-33.7V74.9h27v13.5h-13.5v13.4h20.2v13.5h-20.2v42.3h20.2zm12-84.6l26.9 37.1V74.9h13.5v96.2h-13.5V133l-13.4-18.6v56.7h-13.5V73z" id="b"/><filter x="-50%" y="-50%" width="200%" height="200%" filterUnits="objectBoundingBox" id="a"><feOffset dx="6" dy="6" in="SourceAlpha" result="shadowOffsetOuter1"/><feColorMatrix values="0 0 0 0 0 0 0 0 0 0 0 0 0 0 0 0 0 0 0.5 0" in="shadowOffsetOuter1"/></filter></defs><g transform="translate(-6 -73)" fill="none" fill-rule="evenodd"><use fill="#000" filter="url(#a)" xlink:href="#b"/><use fill="#FFE000" xlink:href="#b"/></g></svg>