<svg width="774" height="103" viewBox="0 0 774 103" fill="none" xmlns="http://www.w3.org/2000/svg">
<path fill-rule="evenodd" clip-rule="evenodd" d="M17.5 19.4V75.2H24.2C26.0667 75.2 27.65 74.4333 28.95 72.9C30.25 71.3667 30.9 69.5667 30.9 67.5V27.1C30.9 24.9667 30.25 23.15 28.95 21.65C27.65 20.15 26.0667 19.4 24.2 19.4H17.5ZM24.9 5.9C30.3 6.1 34.9 8.24998 38.7 12.35C42.5 16.45 44.4 21.3666 44.4 27.1V67.5C44.4 73.5 42.3 78.6 38.1 82.8L44.4 102.1H30.2L25.9 88.5C25.3667 88.5667 24.8333 88.6 24.3 88.6H17.5V102.1H4V5.9H24.9ZM83.3 75.2V25.2C83.3 23.0667 82.65 21.25 81.35 19.75C80.05 18.25 78.4667 17.5 76.6 17.5C74.7333 17.5 73.15 18.25 71.85 19.75C70.55 21.25 69.9 23.0667 69.9 25.2V75.2H83.3ZM56.4 25.2C56.4 19.3333 58.3667 14.3334 62.3 10.2C66.2334 6.06665 71 4 76.6 4C82.2 4 86.9666 6.06665 90.9 10.2C94.8334 14.3334 96.8 19.3333 96.8 25.2V102.1H83.3V88.6H69.9V102.1H56.4V25.2ZM122.2 19.4V75.2H128.9C130.767 75.2 132.35 74.4333 133.65 72.9C134.95 71.3667 135.6 69.5667 135.6 67.5V27.1C135.6 24.9667 134.95 23.15 133.65 21.65C132.35 20.15 130.767 19.4 128.9 19.4H122.2ZM129.6 5.9C135 6.1 139.6 8.24998 143.4 12.35C147.2 16.45 149.1 21.3666 149.1 27.1V67.5C149.1 73.3 147.133 78.2666 143.2 82.4C139.267 86.5334 134.5 88.6 128.9 88.6H122.2V102.1H108.7V5.9H129.6ZM188 5.9H201.5V102.1H188V46.3H174.6V102.1H161.1V5.9H174.6V32.8H188V5.9ZM240.4 75.2V25.2C240.4 23.0667 239.75 21.25 238.45 19.75C237.15 18.25 235.567 17.5 233.7 17.5C231.833 17.5 230.25 18.25 228.95 19.75C227.65 21.25 227 23.0667 227 25.2V75.2H240.4ZM213.5 25.2C213.5 19.3333 215.467 14.3334 219.4 10.2C223.333 6.06665 228.1 4 233.7 4C239.3 4 244.067 6.06665 248 10.2C251.933 14.3334 253.9 19.3333 253.9 25.2V102.1H240.4V88.6H227V102.1H213.5V25.2ZM299.5 88.6V102.1H265.8V5.9H292.8V19.4H279.3V32.8H299.5V46.3H279.3V88.6H299.5ZM311.5 5.9H325V88.6H345.2V102.1H311.5V5.9ZM406.3 5.9H419.8V102.1H406.3V46.3H392.9V102.1H379.4V5.9H392.9V32.8H406.3V5.9ZM458.7 75.2V25.2C458.7 23.0667 458.05 21.25 456.75 19.75C455.45 18.25 453.867 17.5 452 17.5C450.133 17.5 448.55 18.25 447.25 19.75C445.95 21.25 445.3 23.0667 445.3 25.2V75.2H458.7ZM431.8 25.2C431.8 19.3333 433.767 14.3334 437.7 10.2C441.633 6.06665 446.4 4 452 4C457.6 4 462.367 6.06665 466.3 10.2C470.233 14.3334 472.2 19.3333 472.2 25.2V102.1H458.7V88.6H445.3V102.1H431.8V25.2ZM484.1 4L511 41.1V5.9H524.5V102.1H511V64L497.6 45.4V102.1H484.1V4ZM536.5 4L563.4 41.1V5.9H576.9V102.1H563.4V64L550 45.4V102.1H536.5V4ZM622.6 88.6V102.1H588.9V5.9H615.9V19.4H602.4V32.8H622.6V46.3H602.4V88.6H622.6ZM675 19.4V67.5C675 73.5 672.9 78.6 668.7 82.8L675 102.1H660.8L656.5 88.6H648.1V102.1H634.6V5.9H648.1V75.2H654.8C656.667 75.2 658.25 74.4333 659.55 72.9C660.85 71.3667 661.5 69.5667 661.5 67.5V19.4H675ZM720.7 88.6V102.1H687V5.9H714V19.4H700.5V32.8H720.7V46.3H700.5V88.6H720.7ZM732.7 4L759.6 41.1V5.9H773.1V102.1H759.6V64L746.2 45.4V102.1H732.7V4Z" fill="#14143C"/>
<path fill-rule="evenodd" clip-rule="evenodd" d="M13.5 15.4V71.2H20.2C22.0667 71.2 23.65 70.4333 24.95 68.9C26.25 67.3667 26.9 65.5667 26.9 63.5V23.1C26.9 20.9667 26.25 19.15 24.95 17.65C23.65 16.15 22.0667 15.4 20.2 15.4H13.5ZM20.9 1.9C26.3 2.1 30.9 4.24998 34.7 8.35C38.5 12.45 40.4 17.3666 40.4 23.1V63.5C40.4 69.5 38.3 74.6 34.1 78.8L40.4 98.1H26.2L21.9 84.5C21.3667 84.5667 20.8333 84.6 20.3 84.6H13.5V98.1H0V1.9H20.9ZM79.3 71.2V21.2C79.3 19.0667 78.65 17.25 77.35 15.75C76.05 14.25 74.4667 13.5 72.6 13.5C70.7333 13.5 69.15 14.25 67.85 15.75C66.55 17.25 65.9 19.0667 65.9 21.2V71.2H79.3ZM52.4 21.2C52.4 15.3333 54.3667 10.3334 58.3 6.2C62.2334 2.06665 67 0 72.6 0C78.2 0 82.9666 2.06665 86.9 6.2C90.8334 10.3334 92.8 15.3333 92.8 21.2V98.1H79.3V84.6H65.9V98.1H52.4V21.2ZM118.2 15.4V71.2H124.9C126.767 71.2 128.35 70.4333 129.65 68.9C130.95 67.3667 131.6 65.5667 131.6 63.5V23.1C131.6 20.9667 130.95 19.15 129.65 17.65C128.35 16.15 126.767 15.4 124.9 15.4H118.2ZM125.6 1.9C131 2.1 135.6 4.24998 139.4 8.35C143.2 12.45 145.1 17.3666 145.1 23.1V63.5C145.1 69.3 143.133 74.2666 139.2 78.4C135.267 82.5334 130.5 84.6 124.9 84.6H118.2V98.1H104.7V1.9H125.6ZM184 1.9H197.5V98.1H184V42.3H170.6V98.1H157.1V1.9H170.6V28.8H184V1.9ZM236.4 71.2V21.2C236.4 19.0667 235.75 17.25 234.45 15.75C233.15 14.25 231.567 13.5 229.7 13.5C227.833 13.5 226.25 14.25 224.95 15.75C223.65 17.25 223 19.0667 223 21.2V71.2H236.4ZM209.5 21.2C209.5 15.3333 211.467 10.3334 215.4 6.2C219.333 2.06665 224.1 0 229.7 0C235.3 0 240.067 2.06665 244 6.2C247.933 10.3334 249.9 15.3333 249.9 21.2V98.1H236.4V84.6H223V98.1H209.5V21.2ZM295.5 84.6V98.1H261.8V1.9H288.8V15.4H275.3V28.8H295.5V42.3H275.3V84.6H295.5ZM307.5 1.9H321V84.6H341.2V98.1H307.5V1.9ZM402.3 1.9H415.8V98.1H402.3V42.3H388.9V98.1H375.4V1.9H388.9V28.8H402.3V1.9ZM454.7 71.2V21.2C454.7 19.0667 454.05 17.25 452.75 15.75C451.45 14.25 449.867 13.5 448 13.5C446.133 13.5 444.55 14.25 443.25 15.75C441.95 17.25 441.3 19.0667 441.3 21.2V71.2H454.7ZM427.8 21.2C427.8 15.3333 429.767 10.3334 433.7 6.2C437.633 2.06665 442.4 0 448 0C453.6 0 458.367 2.06665 462.3 6.2C466.233 10.3334 468.2 15.3333 468.2 21.2V98.1H454.7V84.6H441.3V98.1H427.8V21.2ZM480.1 0L507 37.1V1.9H520.5V98.1H507V60L493.6 41.4V98.1H480.1V0ZM532.5 0L559.4 37.1V1.9H572.9V98.1H559.4V60L546 41.4V98.1H532.5V0ZM618.6 84.6V98.1H584.9V1.9H611.9V15.4H598.4V28.8H618.6V42.3H598.4V84.6H618.6ZM671 15.4V63.5C671 69.5 668.9 74.6 664.7 78.8L671 98.1H656.8L652.5 84.6H644.1V98.1H630.6V1.9H644.1V71.2H650.8C652.667 71.2 654.25 70.4333 655.55 68.9C656.85 67.3667 657.5 65.5667 657.5 63.5V15.4H671ZM716.7 84.6V98.1H683V1.9H710V15.4H696.5V28.8H716.7V42.3H696.5V84.6H716.7ZM728.7 0L755.6 37.1V1.9H769.1V98.1H755.6V60L742.2 41.4V98.1H728.7V0Z" fill="#F1C33B"/>
</svg>
