<svg width="774" height="103" viewBox="0 0 774 103" fill="none" xmlns="http://www.w3.org/2000/svg">
<g filter="url(#filter0_d_28_57)">
<path fill-rule="evenodd" clip-rule="evenodd" d="M13.5 15.4V71.2H20.2C22.0667 71.2 23.65 70.4333 24.95 68.9C26.25 67.3667 26.9 65.5667 26.9 63.5V23.1C26.9 20.9667 26.25 19.15 24.95 17.65C23.65 16.15 22.0667 15.4 20.2 15.4H13.5ZM20.9 1.9C26.3 2.1 30.9 4.24998 34.7 8.35C38.5 12.45 40.4 17.3666 40.4 23.1V63.5C40.4 69.5 38.3 74.6 34.1 78.8L40.4 98.1H26.2L21.9 84.5C21.3667 84.5667 20.8333 84.6 20.3 84.6H13.5V98.1H0V1.9H20.9ZM79.3 71.2V21.2C79.3 19.0667 78.65 17.25 77.35 15.75C76.05 14.25 74.4667 13.5 72.6 13.5C70.7333 13.5 69.15 14.25 67.85 15.75C66.55 17.25 65.9 19.0667 65.9 21.2V71.2H79.3ZM52.4 21.2C52.4 15.3333 54.3667 10.3334 58.3 6.2C62.2334 2.06665 67 0 72.6 0C78.2 0 82.9666 2.06665 86.9 6.2C90.8334 10.3334 92.8 15.3333 92.8 21.2V98.1H79.3V84.6H65.9V98.1H52.4V21.2ZM118.2 15.4V71.2H124.9C126.767 71.2 128.35 70.4333 129.65 68.9C130.95 67.3667 131.6 65.5667 131.6 63.5V23.1C131.6 20.9667 130.95 19.15 129.65 17.65C128.35 16.15 126.767 15.4 124.9 15.4H118.2ZM125.6 1.9C131 2.1 135.6 4.24998 139.4 8.35C143.2 12.45 145.1 17.3666 145.1 23.1V63.5C145.1 69.3 143.133 74.2666 139.2 78.4C135.267 82.5334 130.5 84.6 124.9 84.6H118.2V98.1H104.7V1.9H125.6ZM184 1.9H197.5V98.1H184V42.3H170.6V98.1H157.1V1.9H170.6V28.8H184V1.9ZM236.4 71.2V21.2C236.4 19.0667 235.75 17.25 234.45 15.75C233.15 14.25 231.567 13.5 229.7 13.5C227.833 13.5 226.25 14.25 224.95 15.75C223.65 17.25 223 19.0667 223 21.2V71.2H236.4ZM209.5 21.2C209.5 15.3333 211.467 10.3334 215.4 6.2C219.333 2.06665 224.1 0 229.7 0C235.3 0 240.067 2.06665 244 6.2C247.933 10.3334 249.9 15.3333 249.9 21.2V98.1H236.4V84.6H223V98.1H209.5V21.2ZM295.5 84.6V98.1H261.8V1.9H288.8V15.4H275.3V28.8H295.5V42.3H275.3V84.6H295.5ZM307.5 1.9H321V84.6H341.2V98.1H307.5V1.9ZM402.3 1.9H415.8V98.1H402.3V42.3H388.9V98.1H375.4V1.9H388.9V28.8H402.3V1.9ZM454.7 71.2V21.2C454.7 19.0667 454.05 17.25 452.75 15.75C451.45 14.25 449.867 13.5 448 13.5C446.133 13.5 444.55 14.25 443.25 15.75C441.95 17.25 441.3 19.0667 441.3 21.2V71.2H454.7ZM427.8 21.2C427.8 15.3333 429.767 10.3334 433.7 6.2C437.633 2.06665 442.4 0 448 0C453.6 0 458.367 2.06665 462.3 6.2C466.233 10.3334 468.2 15.3333 468.2 21.2V98.1H454.7V84.6H441.3V98.1H427.8V21.2ZM480.1 0L507 37.1V1.9H520.5V98.1H507V60L493.6 41.4V98.1H480.1V0ZM532.5 0L559.4 37.1V1.9H572.9V98.1H559.4V60L546 41.4V98.1H532.5V0ZM618.6 84.6V98.1H584.9V1.9H611.9V15.4H598.4V28.8H618.6V42.3H598.4V84.6H618.6ZM671 15.4V63.5C671 69.5 668.9 74.6 664.7 78.8L671 98.1H656.8L652.5 84.6H644.1V98.1H630.6V1.9H644.1V71.2H650.8C652.667 71.2 654.25 70.4333 655.55 68.9C656.85 67.3667 657.5 65.5667 657.5 63.5V15.4H671ZM716.7 84.6V98.1H683V1.9H710V15.4H696.5V28.8H716.7V42.3H696.5V84.6H716.7ZM728.7 0L755.6 37.1V1.9H769.1V98.1H755.6V60L742.2 41.4V98.1H728.7V0Z" fill="#F1C33B"/>
</g>
<defs>
<filter id="filter0_d_28_57" x="0" y="0" width="773.1" height="102.1" filterUnits="userSpaceOnUse" color-interpolation-filters="sRGB">
<feFlood flood-opacity="0" result="BackgroundImageFix"/>
<feColorMatrix in="SourceAlpha" type="matrix" values="0 0 0 0 0 0 0 0 0 0 0 0 0 0 0 0 0 0 127 0" result="hardAlpha"/>
<feOffset dx="4" dy="4"/>
<feColorMatrix type="matrix" values="0 0 0 0 0.079813 0 0 0 0 0.079813 0 0 0 0 0.237079 0 0 0 1 0"/>
<feBlend mode="normal" in2="BackgroundImageFix" result="effect1_dropShadow_28_57"/>
<feBlend mode="normal" in="SourceGraphic" in2="effect1_dropShadow_28_57" result="shape"/>
</filter>
</defs>
</svg>
